<mxfile host="app.diagrams.net" modified="2022-02-02T10:43:30.916Z" agent="5.0 (Windows NT 10.0; Win64; x64) AppleWebKit/537.36 (KHTML, like Gecko) Chrome/97.0.4692.99 Safari/537.36" etag="_KltSdmBuKJjjwhyJQam" version="16.5.2" type="github">
  <diagram id="cyNbGvlOCB5rXuhIbQcJ" name="Page-1">
    <mxGraphModel dx="782" dy="436" grid="1" gridSize="10" guides="1" tooltips="1" connect="1" arrows="1" fold="1" page="1" pageScale="1" pageWidth="827" pageHeight="1169" math="0" shadow="0">
      <root>
        <mxCell id="0" />
        <mxCell id="1" parent="0" />
        <mxCell id="CCITLST_xktJJGGwHw6Q-9" style="edgeStyle=orthogonalEdgeStyle;rounded=0;orthogonalLoop=1;jettySize=auto;html=1;exitX=0.5;exitY=1;exitDx=0;exitDy=0;entryX=0.5;entryY=0;entryDx=0;entryDy=0;fillColor=#008a00;strokeColor=#005700;" edge="1" parent="1" source="CCITLST_xktJJGGwHw6Q-1" target="CCITLST_xktJJGGwHw6Q-2">
          <mxGeometry relative="1" as="geometry" />
        </mxCell>
        <mxCell id="CCITLST_xktJJGGwHw6Q-1" value="Master" style="rounded=0;whiteSpace=wrap;html=1;fillColor=#dae8fc;strokeColor=#6c8ebf;" vertex="1" parent="1">
          <mxGeometry x="120" y="80" width="120" height="40" as="geometry" />
        </mxCell>
        <mxCell id="CCITLST_xktJJGGwHw6Q-10" style="edgeStyle=orthogonalEdgeStyle;rounded=0;orthogonalLoop=1;jettySize=auto;html=1;entryX=0.5;entryY=0;entryDx=0;entryDy=0;fillColor=#008a00;strokeColor=#005700;" edge="1" parent="1" source="CCITLST_xktJJGGwHw6Q-2" target="CCITLST_xktJJGGwHw6Q-5">
          <mxGeometry relative="1" as="geometry" />
        </mxCell>
        <mxCell id="CCITLST_xktJJGGwHw6Q-18" style="edgeStyle=orthogonalEdgeStyle;rounded=0;orthogonalLoop=1;jettySize=auto;html=1;fillColor=#008a00;strokeColor=#005700;" edge="1" parent="1" source="CCITLST_xktJJGGwHw6Q-2" target="CCITLST_xktJJGGwHw6Q-3">
          <mxGeometry relative="1" as="geometry">
            <Array as="points">
              <mxPoint x="340" y="160" />
              <mxPoint x="340" y="160" />
            </Array>
          </mxGeometry>
        </mxCell>
        <mxCell id="CCITLST_xktJJGGwHw6Q-19" style="edgeStyle=orthogonalEdgeStyle;rounded=0;orthogonalLoop=1;jettySize=auto;html=1;entryX=0.347;entryY=0.033;entryDx=0;entryDy=0;entryPerimeter=0;fillColor=#008a00;strokeColor=#005700;" edge="1" parent="1" source="CCITLST_xktJJGGwHw6Q-2" target="CCITLST_xktJJGGwHw6Q-15">
          <mxGeometry relative="1" as="geometry" />
        </mxCell>
        <mxCell id="CCITLST_xktJJGGwHw6Q-2" value="Develop" style="rounded=0;whiteSpace=wrap;html=1;fillColor=#dae8fc;strokeColor=#6c8ebf;" vertex="1" parent="1">
          <mxGeometry x="120" y="160" width="120" height="40" as="geometry" />
        </mxCell>
        <mxCell id="CCITLST_xktJJGGwHw6Q-20" style="edgeStyle=orthogonalEdgeStyle;rounded=0;orthogonalLoop=1;jettySize=auto;html=1;entryX=0.6;entryY=0.167;entryDx=0;entryDy=0;entryPerimeter=0;fillColor=#008a00;strokeColor=#005700;" edge="1" parent="1" source="CCITLST_xktJJGGwHw6Q-3" target="CCITLST_xktJJGGwHw6Q-16">
          <mxGeometry relative="1" as="geometry" />
        </mxCell>
        <mxCell id="CCITLST_xktJJGGwHw6Q-21" style="edgeStyle=orthogonalEdgeStyle;rounded=0;orthogonalLoop=1;jettySize=auto;html=1;entryX=0.687;entryY=0.033;entryDx=0;entryDy=0;entryPerimeter=0;fillColor=#008a00;strokeColor=#005700;" edge="1" parent="1" source="CCITLST_xktJJGGwHw6Q-3" target="CCITLST_xktJJGGwHw6Q-17">
          <mxGeometry relative="1" as="geometry">
            <Array as="points">
              <mxPoint x="560" y="350" />
              <mxPoint x="619" y="350" />
            </Array>
          </mxGeometry>
        </mxCell>
        <mxCell id="CCITLST_xktJJGGwHw6Q-25" style="edgeStyle=orthogonalEdgeStyle;rounded=0;orthogonalLoop=1;jettySize=auto;html=1;entryX=1;entryY=0.25;entryDx=0;entryDy=0;fillColor=#008a00;strokeColor=#005700;" edge="1" parent="1" source="CCITLST_xktJJGGwHw6Q-3" target="CCITLST_xktJJGGwHw6Q-1">
          <mxGeometry relative="1" as="geometry">
            <Array as="points">
              <mxPoint x="500" y="90" />
            </Array>
          </mxGeometry>
        </mxCell>
        <mxCell id="CCITLST_xktJJGGwHw6Q-3" value="Release" style="rounded=0;whiteSpace=wrap;html=1;fillColor=#dae8fc;strokeColor=#6c8ebf;" vertex="1" parent="1">
          <mxGeometry x="440" y="160" width="120" height="40" as="geometry" />
        </mxCell>
        <mxCell id="CCITLST_xktJJGGwHw6Q-23" style="edgeStyle=orthogonalEdgeStyle;rounded=0;orthogonalLoop=1;jettySize=auto;html=1;entryX=1;entryY=0.25;entryDx=0;entryDy=0;fillColor=#e51400;strokeColor=#B20000;" edge="1" parent="1" source="CCITLST_xktJJGGwHw6Q-4" target="CCITLST_xktJJGGwHw6Q-3">
          <mxGeometry relative="1" as="geometry">
            <Array as="points">
              <mxPoint x="670" y="220" />
              <mxPoint x="580" y="220" />
              <mxPoint x="580" y="170" />
            </Array>
          </mxGeometry>
        </mxCell>
        <mxCell id="CCITLST_xktJJGGwHw6Q-24" style="edgeStyle=orthogonalEdgeStyle;rounded=0;orthogonalLoop=1;jettySize=auto;html=1;entryX=0.906;entryY=1.067;entryDx=0;entryDy=0;entryPerimeter=0;fillColor=#e51400;strokeColor=#B20000;" edge="1" parent="1" source="CCITLST_xktJJGGwHw6Q-4" target="CCITLST_xktJJGGwHw6Q-2">
          <mxGeometry relative="1" as="geometry" />
        </mxCell>
        <mxCell id="CCITLST_xktJJGGwHw6Q-4" value="Hotfix" style="rounded=0;whiteSpace=wrap;html=1;fillColor=#dae8fc;strokeColor=#6c8ebf;" vertex="1" parent="1">
          <mxGeometry x="590" y="240" width="120" height="40" as="geometry" />
        </mxCell>
        <mxCell id="CCITLST_xktJJGGwHw6Q-5" value="Feature" style="rounded=0;whiteSpace=wrap;html=1;fillColor=#dae8fc;strokeColor=#6c8ebf;" vertex="1" parent="1">
          <mxGeometry x="120" y="280" width="120" height="40" as="geometry" />
        </mxCell>
        <mxCell id="CCITLST_xktJJGGwHw6Q-7" style="edgeStyle=orthogonalEdgeStyle;rounded=0;orthogonalLoop=1;jettySize=auto;html=1;entryX=0.411;entryY=-0.083;entryDx=0;entryDy=0;entryPerimeter=0;fillColor=#e51400;strokeColor=#B20000;" edge="1" parent="1" source="CCITLST_xktJJGGwHw6Q-6" target="CCITLST_xktJJGGwHw6Q-1">
          <mxGeometry relative="1" as="geometry">
            <Array as="points">
              <mxPoint x="45" y="40" />
              <mxPoint x="169" y="40" />
            </Array>
          </mxGeometry>
        </mxCell>
        <mxCell id="CCITLST_xktJJGGwHw6Q-8" style="edgeStyle=orthogonalEdgeStyle;rounded=0;orthogonalLoop=1;jettySize=auto;html=1;entryX=0;entryY=0.5;entryDx=0;entryDy=0;fillColor=#e51400;strokeColor=#B20000;" edge="1" parent="1" source="CCITLST_xktJJGGwHw6Q-6" target="CCITLST_xktJJGGwHw6Q-2">
          <mxGeometry relative="1" as="geometry">
            <Array as="points">
              <mxPoint x="40" y="180" />
            </Array>
          </mxGeometry>
        </mxCell>
        <mxCell id="CCITLST_xktJJGGwHw6Q-6" value="Bugfix" style="rounded=0;whiteSpace=wrap;html=1;fillColor=#dae8fc;strokeColor=#6c8ebf;" vertex="1" parent="1">
          <mxGeometry x="10" y="80" width="70" height="40" as="geometry" />
        </mxCell>
        <mxCell id="CCITLST_xktJJGGwHw6Q-12" value="" style="endArrow=classic;html=1;rounded=0;entryX=0.661;entryY=1.05;entryDx=0;entryDy=0;entryPerimeter=0;fillColor=#008a00;strokeColor=#005700;" edge="1" parent="1" target="CCITLST_xktJJGGwHw6Q-2">
          <mxGeometry width="50" height="50" relative="1" as="geometry">
            <mxPoint x="199" y="280" as="sourcePoint" />
            <mxPoint x="190" y="200" as="targetPoint" />
          </mxGeometry>
        </mxCell>
        <mxCell id="CCITLST_xktJJGGwHw6Q-13" value="Dev Env" style="ellipse;whiteSpace=wrap;html=1;fillColor=#f8cecc;strokeColor=#b85450;" vertex="1" parent="1">
          <mxGeometry x="120" y="380" width="100" height="60" as="geometry" />
        </mxCell>
        <mxCell id="CCITLST_xktJJGGwHw6Q-15" value="Test Env" style="ellipse;whiteSpace=wrap;html=1;fillColor=#f8cecc;strokeColor=#b85450;" vertex="1" parent="1">
          <mxGeometry x="250" y="380" width="100" height="60" as="geometry" />
        </mxCell>
        <mxCell id="CCITLST_xktJJGGwHw6Q-16" value="Stage Env" style="ellipse;whiteSpace=wrap;html=1;fillColor=#f8cecc;strokeColor=#b85450;" vertex="1" parent="1">
          <mxGeometry x="440" y="380" width="100" height="60" as="geometry" />
        </mxCell>
        <mxCell id="CCITLST_xktJJGGwHw6Q-17" value="Prod Env" style="ellipse;whiteSpace=wrap;html=1;fillColor=#f8cecc;strokeColor=#b85450;" vertex="1" parent="1">
          <mxGeometry x="550" y="380" width="100" height="60" as="geometry" />
        </mxCell>
      </root>
    </mxGraphModel>
  </diagram>
</mxfile>
